<svg width="34" height="32" viewBox="0 0 34 32" fill="#21313C" xmlns="http://www.w3.org/2000/svg">
<g id="linkedin-icon-1-logo-svg-vector 1">
<path id="Vector" d="M4 6.78787C4 5.97978 4.28284 5.31311 4.84848 4.78788C5.41413 4.26262 6.1495 4 7.05454 4C7.94344 4 8.66261 4.25857 9.21211 4.77576C9.77776 5.30909 10.0606 6.00402 10.0606 6.8606C10.0606 7.63636 9.78586 8.2828 9.23635 8.79999C8.67071 9.33332 7.92727 9.59999 7.00606 9.59999H6.98181C6.09292 9.59999 5.37374 9.33332 4.82424 8.79999C4.27474 8.26666 4 7.59595 4 6.78787ZM4.31515 28V11.806H9.69696V28H4.31515ZM12.6788 28H18.0606V18.9576C18.0606 18.3919 18.1252 17.9555 18.2545 17.6485C18.4808 17.099 18.8242 16.6343 19.2848 16.2545C19.7454 15.8747 20.3232 15.6848 21.0182 15.6848C22.8283 15.6848 23.7333 16.905 23.7333 19.3454V28H29.1151V18.7151C29.1151 16.3232 28.5495 14.5091 27.4181 13.2727C26.2868 12.0364 24.7919 11.4182 22.9333 11.4182C20.8485 11.4182 19.2242 12.3151 18.0606 14.1091V14.1576H18.0363L18.0606 14.1091V11.806H12.6788C12.7111 12.3232 12.7273 13.9313 12.7273 16.6303C12.7273 19.3293 12.7111 23.1191 12.6788 28Z" fill="21313C"/>
</g>
</svg>
